<?xml version="1.0" standalone="no"?>
<!DOCTYPE svg PUBLIC "-//W3C//DTD SVG 20010904//EN"
 "http://www.w3.org/TR/2001/REC-SVG-20010904/DTD/svg10.dtd">
<svg version="1.0" xmlns="http://www.w3.org/2000/svg"
 width="500.000000pt" height="500.000000pt" viewBox="0 0 500.000000 500.000000"
 preserveAspectRatio="xMidYMid meet">
<metadata>
Created by potrace 1.14, written by Peter Selinger 2001-2017
</metadata>
<g transform="translate(0.000000,500.000000) scale(0.100000,-0.100000)"
fill="#000000" stroke="none">
<path d="M2279 4986 c-2 -2 -35 -7 -74 -11 -38 -3 -92 -11 -120 -16 -27 -5
-63 -12 -80 -15 -173 -30 -474 -136 -655 -232 -526 -276 -928 -710 -1152
-1242 -50 -117 -116 -320 -132 -400 -33 -171 -38 -205 -53 -325 -8 -68 -7
-342 1 -435 29 -315 103 -588 235 -865 294 -616 832 -1083 1491 -1294 88 -28
241 -68 300 -77 14 -2 34 -6 45 -9 11 -2 49 -7 85 -10 36 -4 90 -10 120 -14
104 -13 412 -5 549 14 66 9 108 16 131 21 14 3 36 8 50 11 14 2 65 15 115 28
502 134 939 410 1275 804 166 193 326 465 420 709 31 78 85 249 94 292 56 278
68 382 69 570 0 182 -15 344 -48 510 -3 14 -7 35 -10 47 -10 53 -57 214 -83
288 -53 144 -72 188 -138 315 -157 301 -359 550 -629 775 -313 261 -727 454
-1125 525 -36 7 -74 14 -85 16 -75 13 -127 16 -346 19 -136 3 -248 3 -250 1z
m486 -405 c39 -6 79 -12 90 -15 11 -2 40 -7 65 -11 189 -31 490 -150 677 -267
63 -39 205 -139 228 -159 5 -6 -216 -9 -530 -9 l-539 1 -50 -72 c-28 -39 -60
-84 -71 -99 -11 -16 -198 -277 -415 -580 -217 -303 -406 -568 -420 -588 l-25
-37 -3 690 -2 690 -303 -3 -302 -2 30 25 c17 13 73 54 125 89 298 202 617 316
986 355 96 10 375 5 459 -8z m-1795 -2067 c0 -1286 -2 -1425 -15 -1414 -56 46
-231 289 -303 422 -92 166 -183 425 -216 613 -3 17 -8 40 -10 52 -23 112 -27
493 -8 608 7 39 15 86 18 105 12 77 67 266 105 363 82 207 209 421 347 585 31
37 61 72 67 79 5 7 11 12 13 13 1 0 2 -642 2 -1426z m3275 1151 c90 -135 145
-239 198 -370 43 -108 93 -262 100 -310 3 -16 10 -50 15 -75 6 -25 13 -69 17
-99 4 -30 9 -63 11 -75 12 -52 10 -370 -2 -473 -42 -353 -182 -702 -398 -989
l-61 -82 -3 939 -2 939 -385 0 -385 0 -2 -567 -3 -568 30 -44 c17 -24 37 -54
45 -67 8 -13 59 -88 113 -166 54 -79 141 -206 194 -283 53 -77 129 -188 169
-246 l73 -106 -37 -35 c-178 -167 -423 -321 -666 -418 -133 -52 -355 -109
-486 -124 -25 -3 -72 -8 -105 -12 -260 -29 -616 18 -895 119 -205 74 -488 235
-610 347 l-45 41 320 -3 320 -3 2 535 2 534 42 61 c23 33 54 77 68 98 13 20
29 37 35 37 6 0 20 -16 31 -35 41 -71 240 -360 261 -380 13 -11 31 -34 41 -52
10 -17 68 -105 128 -194 61 -90 113 -171 116 -179 4 -9 14 -22 23 -29 9 -7 16
-17 16 -22 0 -4 26 -46 58 -92 31 -46 62 -91 67 -99 6 -9 35 -52 65 -97 l54
-81 473 0 c260 0 473 3 473 8 0 9 -35 62 -112 172 -32 45 -58 84 -58 88 0 3
-8 15 -19 26 -10 12 -58 80 -107 151 -99 145 -174 256 -219 320 -112 162 -193
281 -208 308 -11 18 -27 41 -36 52 -10 11 -25 31 -34 45 -9 14 -31 45 -48 70
-36 49 -128 185 -144 212 -5 9 -42 61 -82 116 -39 56 -76 109 -81 119 -9 15
10 45 109 173 65 85 184 242 265 348 l146 192 514 0 514 0 0 248 1 247 25 -30
c14 -16 58 -79 99 -140z"/>
</g>
</svg>
