<?xml version="1.0" standalone="no"?>
<!DOCTYPE svg PUBLIC "-//W3C//DTD SVG 20010904//EN"
 "http://www.w3.org/TR/2001/REC-SVG-20010904/DTD/svg10.dtd">
<svg version="1.0" xmlns="http://www.w3.org/2000/svg"
 width="500.000000pt" height="500.000000pt" viewBox="0 0 500.000000 500.000000"
 preserveAspectRatio="xMidYMid meet">
<metadata>
Created by potrace 1.14, written by Peter Selinger 2001-2017
</metadata>
<g transform="translate(0.000000,500.000000) scale(0.100000,-0.100000)"
fill="#000000" stroke="none">
<path d="M2279 4976 c-2 -2 -31 -6 -64 -10 -111 -11 -249 -38 -371 -72 -669
-183 -1221 -622 -1552 -1234 -72 -134 -180 -403 -198 -493 -2 -11 -8 -34 -13
-51 -11 -34 -38 -164 -46 -220 -3 -20 -7 -53 -10 -73 -14 -94 -18 -168 -17
-308 0 -216 10 -315 52 -520 100 -489 349 -935 717 -1284 355 -338 782 -554
1283 -651 267 -51 636 -47 930 11 278 55 564 168 820 324 404 245 735 611 940
1039 49 104 118 271 125 307 2 9 13 46 24 83 25 82 67 288 76 376 4 36 9 74
12 85 5 26 5 361 0 400 -3 17 -8 66 -12 110 -4 44 -9 82 -10 85 -2 3 -6 26
-10 50 -4 25 -13 74 -22 110 -8 36 -17 74 -19 85 -11 58 -73 236 -121 348
-157 369 -388 676 -708 942 -334 278 -784 479 -1212 540 -23 3 -57 8 -75 12
-36 6 -513 14 -519 9z m486 -405 c60 -9 171 -29 240 -45 56 -12 204 -61 290
-96 682 -277 1167 -892 1280 -1620 28 -182 26 -518 -5 -653 -5 -23 -12 -58
-15 -77 -24 -143 -93 -338 -182 -515 -230 -457 -630 -818 -1120 -1009 -95 -37
-327 -101 -408 -112 -27 -3 -57 -8 -66 -9 -128 -23 -376 -23 -559 0 -201 25
-433 94 -626 185 -139 66 -333 188 -421 265 -173 151 -256 239 -366 385 -218
292 -365 673 -395 1025 -9 106 -9 363 0 445 27 238 99 475 213 697 64 124 61
119 142 239 115 169 246 311 397 432 39 31 73 59 76 62 15 15 186 124 255 162
185 101 440 191 635 222 84 14 119 19 185 25 95 10 364 5 450 -8z"/>
<path d="M2231 3802 c-30 -5 -1279 -1246 -1287 -1279 -4 -13 -1 -36 5 -51 14
-33 1243 -1253 1274 -1265 29 -11 71 0 93 25 17 18 19 40 19 224 l0 205 -423
421 -424 422 399 397 c219 218 409 409 423 424 25 26 25 29 26 213 1 103 -3
199 -8 213 -5 14 -21 32 -36 40 -33 16 -32 16 -61 11z"/>
<path d="M2764 3802 c-12 -2 -32 -14 -45 -28 -23 -25 -24 -32 -26 -197 -1 -95
0 -186 3 -204 4 -26 80 -107 425 -451 l421 -418 -425 -425 -425 -424 2 -201
c1 -181 3 -204 20 -222 22 -25 64 -36 93 -25 28 10 1250 1220 1269 1255 7 15
13 38 12 53 -2 20 -151 174 -633 654 -347 345 -639 630 -650 632 -11 3 -30 3
-41 1z"/>
</g>
</svg>
